<?xml version="1.0" encoding="utf-8"?>
<!-- Generator: Adobe Illustrator 26.0.1, SVG Export Plug-In . SVG Version: 6.00 Build 0)  -->
<svg version="1.1" id="Layer_1" xmlns="http://www.w3.org/2000/svg" xmlns:xlink="http://www.w3.org/1999/xlink" x="0px" y="0px"
	 viewBox="0 0 579.7 598" style="enable-background:new 0 0 579.7 598;" xml:space="preserve">
<g>
	<path d="M579.7,114.1c0-2,0-4-0.4-6c-2-10-9.6-15.6-21.3-15.6c-84.2,0-168.3,0-252.5,0h-7c0-3.7,0.1-6.5,0-9.4
		c-0.7-16.4-12.7-28-29.1-28.1c-8,0-16,0-24,0c-10.5,0-21,0-31.5,0c-4.5,0-7.7-2.4-8.8-6.8c-1.1-4.1,0.2-7.8,4-9.9
		c2.1-1.1,4.8-1.4,7.2-1.4c36-0.1,72,0,108-0.1c21,0,34.5-17.1,29.8-37.9h-18.3c-0.1,1.6-0.3,2.6-0.3,3.6
		c-0.3,13.4-1.8,14.9-15.1,14.9c-34.8,0-69.7,0-104.5,0c-12,0-21.4,4.6-27.2,15.4c-9.8,18.5,3.3,41,24.3,41.4
		c18.5,0.3,37,0,55.5,0.1c7.2,0,10.4,3.3,10.6,10.3c0,2.4,0,4.9,0,7.8h-7.5c-84,0-168,0-252,0c-14.2,0-21.7,7.5-21.7,21.6
		c0,67.2,0,134.3,0,201.5c0,13.6,7.7,21.3,21.4,21.4c8.3,0,16.6,0,25.6,0v6.2c0,28.2,0,56.3,0.1,84.5c0,2.9,0.6,6,1.6,8.7
		c8.2,22.3,17.1,44.4,24.7,66.9c2.3,6.8,1.2,14.8,1.5,22.2c0,0.8-1.2,1.8-2.1,2.5c-4.9,4.2-7.1,9.4-7,15.8c0.1,17.2,0,34.3,0,51.5
		c0,1.1,0.1,2.2,0.2,3.5h19.1v-55.5H195v55.5h18.4c0.2-0.7,0.4-1.1,0.4-1.6c0-18.7,0.2-37.3-0.2-56c-0.1-3.4-1.4-8-3.9-9.9
		c-5.8-4.5-5-10.1-5.2-16c-0.2-4.6,1.7-7.6,4.3-11.1c10.4-13.8,20.8-27.7,30.1-42.2c6.9-10.7,11.5-22.8,12.1-35.6
		c0.7-15.1,0.9-30.3,0.2-45.5c-0.6-13.3-10.5-23.5-23.5-25.5c-4.3-0.7-8.9-0.1-13.6-0.1v-18.1h148.9V356c-0.9,0-1.4,0.1-1.8,0
		c-20.2-3.6-35.4,9-35.4,29.3c0,10.8,0.1,21.7,0,32.5c-0.1,10.1,1.8,19.9,5.5,29.3c7.8,20,19.5,37.6,33.9,53.2
		c6.6,7.2,8.6,14.5,7.5,23.3c-0.2,1.5-0.9,3.2-1.9,4.1c-5.2,4.5-7.3,10-7.3,16.8c0.2,16.7,0,33.3,0.1,50c0,1.4,0.2,2.9,0.3,4.3H383
		v-55.5h111.8v55.6h19c0-19.9,0.3-39.6-0.3-59.2c-0.1-3.9-4.1-7.7-6.3-11.4c-0.7-1.1-2.3-2-2.3-3c0.3-7.6-0.5-15.6,1.8-22.6
		c5.8-18,12.7-35.8,19.8-53.3c4.7-11.5,6.7-23,6.4-35.4c-0.5-25.5-0.2-50.9-0.2-77c8,0,16.8,0,25.6,0c13.6,0,21.4-7.8,21.4-21.4
		C579.7,248.4,579.7,181.2,579.7,114.1z M214.4,382.1c0.8-4.8,4.4-7.8,9-7.6c4.7,0.1,8.4,3.5,8.7,8.6c0.3,5,0.1,10,0.1,15
		c0,3.3-0.3,6.7,0,10c2,20.8-4.8,39.2-16.5,55.7c-8.5,11.9-18.2,22.9-27.2,34.5c-1.6,2-2.8,4.8-3,7.4c-0.4,5.9-0.1,11.9-0.1,18h-93
		c-0.1-1.8-0.4-3.4-0.2-5c1.1-10.8-1.7-20.6-5.6-30.5c-7.3-18.6-14.2-37.3-21.1-56c-0.8-2.3-1.4-4.8-1.4-7.2c-0.1-38-0.1-76-0.1-114
		c0-1,0-2,0.1-3c0.6-5.2,4.5-8.7,9.4-8.5c5,0.2,8.4,3.7,8.4,9.2c0.1,16.7,0,33.3,0,50v6.1h19.6c0.1-1.7,0.2-3.4,0.2-5.2
		c0-22.8-0.1-45.7-0.1-68.5c0-6.2,2.8-9.7,7.9-10.2c6.1-0.6,10.1,3.3,10.1,10.1c0.1,22.2,0,44.3,0,66.5v7.2h19.2
		c0.1-1.9,0.3-3.8,0.3-5.7c-0.1-28.7-0.2-57.3-0.2-86c0-6.1,2.4-9.7,6.9-10.8c5.7-1.3,10.9,2.3,11.1,8.3c0.3,6-0.1,12-0.1,18
		c0,24.2,0,48.3,0,72.5c0,1.1,0.2,2.3,0.3,3.7h19.6v-5.5c0-22.7,0-45.3,0-68c0-6.8,3-10.3,8.7-10.4c5.8-0.1,9.3,3.7,9.3,10.5
		c0,37.8,0,75.6,0,113.5v6.4H214c0-7.7,0-15.2,0-22.7C214,386.4,214.1,384.2,214.4,382.1z M513.5,426.2c0,1.9-0.7,3.9-1.3,5.8
		c-7.6,20.4-15.1,40.9-23,61.2c-2.7,7-4.4,13.9-3.8,21.4c0.2,2.9,0,5.9,0,9.1h-93.3c0-5.9-0.2-11.7,0.1-17.4
		c0.1-3.4-0.9-5.8-3.3-8.3c-15.1-15.7-28.2-32.8-37.4-52.7c-4.2-9-6.4-18.5-6.1-28.5c0.2-10.8-0.1-21.7,0.1-32.5
		c0.2-8,7.9-12.6,13.8-8c2.4,1.9,3.9,6.1,4.2,9.4c0.7,6.6,0.2,13.3,0.2,20v5.9h19.2v-6c0-44.2,0-88.3,0-132.5c0-6.5,2.9-10.2,8-10.8
		c5.9-0.6,10,3.2,10.1,9.6c0.1,18.3,0,36.7,0,55c0,12.5,0,25,0,37.9h19.5c0.1-1.6,0.3-3.3,0.3-5.1c0-9.3,0-18.7,0.1-28
		c0.1-5.4,3.5-8.9,8.6-9c5-0.1,8.8,3.3,8.9,8.7c0.2,9.2,0.1,18.3,0.1,27.5c0,2,0,3.9,0,6.1h19.5c0-10.7-0.2-21.1,0.1-31.5
		c0.1-2.8,0.9-6.6,2.8-8c2.4-1.8,6.5-2.4,9.5-1.9c3.7,0.6,5.6,4,5.6,7.9c0,9.2,0,18.3-0.1,27.5c0,1.8,0,3.6,0,5.8h19.8
		c0-5.8,0-11.5,0-17.3c0-6.8,3-10.3,8.7-10.3c5.6,0,9.2,3.7,9.2,10.2C513.6,373.6,513.6,399.9,513.5,426.2z M560.2,317.3
		c-22.5,1.2-44.9-1.2-67.6,1.6c-12.6-17.6-27-20.7-44.6-8.9c-7.9-6.4-17-8.3-27.7-5.6c0-2.5,0-4.4,0-6.3
		c-0.1-10.2,0.3-20.4-0.5-30.5c-1.2-14.6-14.3-25.5-28.8-24.9c-15.1,0.6-27.1,12.2-27.4,27.1c-0.3,13.8-0.1,27.7-0.1,41.5v5.9H214
		c0-9,0.1-18,0-26.9c-0.2-15.1-10-26.5-24.8-28.5c-4.3-0.6-8.9,0.4-13.7,0.6c-4.7-11.9-13.5-19.5-27.2-19.6
		c-13.7,0-22.6,7.6-27.5,20c-19.3-3.4-29.9,1.9-37.5,18.8c-10.8-2.9-21-1.6-29.5,6.4c-8.5,7.9-9.7,18.2-8.8,29.5H17.4V112.2h542.9
		V317.3z"/>
	<rect x="242.1" y="280.4" width="93.2" height="18.7"/>
	<rect x="223.4" y="242.9" width="18.2" height="18.7"/>
	<rect x="260.8" y="242.9" width="18.4" height="18.6"/>
	<rect x="298.5" y="242.9" width="18.1" height="18.8"/>
	<rect x="336" y="242.9" width="18.2" height="18.7"/>
	<rect x="448.4" y="242.8" width="18.1" height="18.9"/>
	<rect x="523.3" y="242.9" width="18.2" height="18.8"/>
	<path d="M391.6,167.6v19.2h-18.5c0-5.7-0.1-11.3,0.1-16.9c0-0.8,1.5-2.2,2.4-2.3C380.8,167.5,386.1,167.6,391.6,167.6z"/>
	<rect x="486" y="242.8" width="18.1" height="19"/>
	<path d="M54.5,186.8H36.1v-19.2c5.5,0,10.7-0.1,16,0.1c0.8,0,2.3,1.5,2.3,2.3C54.6,175.4,54.5,180.8,54.5,186.8z"/>
	<rect x="73.3" y="168" width="18.4" height="18.7"/>
	<rect x="111" y="167.9" width="18.2" height="18.8"/>
	<rect x="148.5" y="167.9" width="18.1" height="18.8"/>
	<rect x="185.9" y="167.8" width="18.2" height="18.8"/>
	<rect x="223.4" y="167.9" width="18.2" height="18.8"/>
	<rect x="261.1" y="167.8" width="18.2" height="18.8"/>
	<rect x="298.4" y="167.7" width="18.1" height="19"/>
	<rect x="336" y="167.9" width="18.2" height="18.8"/>
	<rect x="36" y="242.9" width="18.2" height="18.8"/>
	<rect x="411.1" y="167.8" width="18.1" height="18.8"/>
	<rect x="448.5" y="167.9" width="18.2" height="18.7"/>
	<rect x="486" y="167.9" width="18.1" height="18.8"/>
	<rect x="523.4" y="167.9" width="18.2" height="18.8"/>
	<rect x="73.4" y="242.9" width="18.2" height="18.8"/>
	<rect x="317.1" y="205.5" width="18.3" height="18.4"/>
	<rect x="92.2" y="130.5" width="18.1" height="18.7"/>
	<rect x="467.1" y="205.3" width="18.3" height="18.6"/>
	<rect x="167.1" y="130.4" width="18.4" height="18.5"/>
	<rect x="92.2" y="205.4" width="18.3" height="18.6"/>
	<rect x="242.1" y="130.2" width="18.2" height="18.7"/>
	<rect x="392.1" y="205.3" width="18.3" height="18.6"/>
	<rect x="317.3" y="130.3" width="18.2" height="18.6"/>
	<rect x="167.2" y="205.3" width="18.2" height="18.6"/>
	<rect x="392.2" y="130.3" width="18.2" height="18.7"/>
	<rect x="467.1" y="130.2" width="18.2" height="18.7"/>
	<rect x="242.1" y="205.5" width="18.3" height="18.4"/>
	<rect x="54.7" y="130.4" width="18.1" height="18.7"/>
	<rect x="129.7" y="130.4" width="18.1" height="18.6"/>
	<rect x="204.8" y="130.4" width="17.9" height="18.7"/>
	<rect x="279.7" y="130.4" width="18.1" height="18.7"/>
	<rect x="354.8" y="130.4" width="18" height="18.7"/>
	<rect x="504.8" y="130.3" width="18" height="18.7"/>
	<rect x="429.8" y="130.3" width="17.9" height="18.6"/>
	<rect x="54.8" y="205.4" width="17.9" height="18.6"/>
	<rect x="129.7" y="205.4" width="18.1" height="18.6"/>
	<rect x="504.7" y="205.4" width="18.1" height="18.7"/>
	<rect x="429.8" y="205.4" width="18.1" height="18.6"/>
	<rect x="354.7" y="205.4" width="18.1" height="18.7"/>
	<rect x="279.7" y="205.4" width="18.1" height="18.6"/>
	<rect x="204.7" y="205.5" width="18" height="18.4"/>
</g>
</svg>
